<svg width="16" height="16" viewBox="0 0 16 16" fill="none" xmlns="http://www.w3.org/2000/svg">
<path fill-rule="evenodd" clip-rule="evenodd" d="M13.3798 8.00018L13.3803 7.80023L13.3813 7.80024L13.3824 7.80025L13.3798 8.00018Z" fill="currentColor"/>
<path d="M12.8329 8.06619C12.8589 8.03245 12.8881 8.001 12.9204 7.97235C13.0473 7.85967 13.2117 7.79832 13.3813 7.80024L13.3803 7.80023L13.3798 8.00018L13.3824 7.80025L13.3813 7.80024C13.4777 7.80063 13.5723 7.82107 13.66 7.86002C13.7482 7.89918 13.8273 7.9563 13.8922 8.02772C13.9572 8.09913 14.0065 8.1833 14.0371 8.27484C14.0677 8.36631 14.0789 8.46314 14.07 8.55918C13.968 9.68497 13.5546 10.7601 12.8762 11.6643C12.1977 12.5685 11.2809 13.266 10.2284 13.6787C9.69057 13.8896 9.12815 14.0218 8.55829 14.0737C7.59533 14.164 6.62226 14.0237 5.72055 13.6615C4.67153 13.2402 3.76051 12.5352 3.08952 11.6253C2.41853 10.7155 2.01406 9.63691 1.9214 8.51023C1.89411 8.17835 1.89701 7.77055 1.92382 7.44128C2.02583 6.31549 2.43923 5.24032 3.11768 4.33615C3.79618 3.43193 4.71299 2.73443 5.76546 2.32178C6.81793 1.90913 7.9645 1.79761 9.07676 1.99971C10.0458 2.1758 10.9555 2.58389 11.7292 3.18639V2.59329C11.7292 2.40988 11.8021 2.23398 11.9318 2.10429C12.0615 1.97461 12.2374 1.90175 12.4208 1.90175C12.6042 1.90175 12.7801 1.97461 12.9098 2.10429C13.0395 2.23398 13.1123 2.40988 13.1123 2.59329V4.62974C13.1122 4.92479 12.9949 5.20782 12.7863 5.41646C12.5776 5.62509 12.2947 5.74237 11.9996 5.74253H11.2651H9.96309C9.77968 5.74253 9.60379 5.66967 9.4741 5.53998C9.34441 5.41029 9.27155 5.2344 9.27155 5.05099C9.27155 4.86758 9.34441 4.69169 9.4741 4.562C9.60379 4.43231 9.77968 4.35945 9.96309 4.35945H10.3319H10.983C10.6467 4.08332 10.2734 3.85446 9.87332 3.67983C9.85472 3.67171 9.83607 3.66371 9.81736 3.65583C9.4078 3.48331 8.97683 3.36971 8.53728 3.31765C8.35823 3.29644 8.17777 3.28544 7.99674 3.28483C6.81837 3.28649 5.68318 3.72866 4.81414 4.5245C4.46593 4.84339 4.17053 5.20982 3.93477 5.61C3.47653 6.38466 3.25423 7.27625 3.28655 8.17719C3.31884 9.07738 3.60868 9.94943 4.12166 10.6899C4.24937 10.8742 4.38957 11.0484 4.54096 11.2115C4.57176 11.2447 4.60302 11.2774 4.63473 11.3097C5.26389 11.9523 6.06942 12.3938 6.94874 12.5959C7.47036 12.7158 8.00592 12.7453 8.53258 12.6858C8.62612 12.675 8.7195 12.6613 8.81258 12.6449C9.07159 12.5986 9.34418 12.5284 9.59194 12.4396C10.4399 12.1357 11.1829 11.595 11.7328 10.8815C12.2828 10.1681 12.6165 9.3119 12.6944 8.4145L12.6948 8.41064C12.7082 8.28445 12.7564 8.1654 12.8329 8.06619Z" fill="currentColor"/>
</svg>
