<svg width="14" height="15" viewBox="0 0 14 15" fill="none" xmlns="http://www.w3.org/2000/svg">
<path d="M10.7917 1.08301H3.20833C2.35771 1.08393 1.5422 1.42225 0.940722 2.02373C0.339244 2.62521 0.000926432 3.44072 0 4.29134L0 10.708C0.000926432 11.5586 0.339244 12.3741 0.940722 12.9756C1.5422 13.5771 2.35771 13.9154 3.20833 13.9163H10.7917C11.6423 13.9154 12.4578 13.5771 13.0593 12.9756C13.6608 12.3741 13.9991 11.5586 14 10.708V4.29134C13.9991 3.44072 13.6608 2.62521 13.0593 2.02373C12.4578 1.42225 11.6423 1.08393 10.7917 1.08301ZM10.7917 2.83301C11.1454 2.83419 11.4865 2.96516 11.7501 3.20109L7.95842 6.99276C7.70088 7.23873 7.35846 7.37598 7.00233 7.37598C6.64621 7.37598 6.30378 7.23873 6.04625 6.99276L2.25458 3.20109C2.51699 2.96623 2.85617 2.83532 3.20833 2.83301H10.7917ZM10.7917 12.1663H3.20833C2.82156 12.1663 2.45063 12.0127 2.17714 11.7392C1.90365 11.4657 1.75 11.0948 1.75 10.708V5.17626L4.80608 8.23234C5.09411 8.52049 5.43608 8.74907 5.81247 8.90503C6.18886 9.06098 6.59229 9.14125 6.99971 9.14125C7.40713 9.14125 7.81055 9.06098 8.18694 8.90503C8.56333 8.74907 8.90531 8.52049 9.19333 8.23234L12.25 5.17626V10.708C12.25 11.0948 12.0964 11.4657 11.8229 11.7392C11.5494 12.0127 11.1784 12.1663 10.7917 12.1663Z" fill="currentColor"/>
</svg>
