<svg width="18" height="18" viewBox="0 0 18 18" fill="none" xmlns="http://www.w3.org/2000/svg">
<path d="M6.80122 12.2605L10.4762 15.9355L11.0065 15.4053C11.7395 14.6698 12.2684 13.7561 12.5413 12.7542C12.8141 11.7523 12.8215 10.6967 12.5627 9.69105L12.3782 8.94105L13.9427 7.37655L14.1055 7.5393C14.4844 7.92772 14.9879 8.17058 15.5278 8.22542C16.0677 8.28026 16.6096 8.14359 17.059 7.8393C17.3253 7.64952 17.5471 7.40397 17.7088 7.11974C17.8706 6.83551 17.9684 6.51943 17.9956 6.19352C18.0227 5.86762 17.9785 5.53971 17.8659 5.23265C17.7534 4.92559 17.5753 4.64675 17.344 4.41555L13.6502 0.715796C13.2713 0.327372 12.7678 0.0845096 12.2279 0.0296706C11.688 -0.0251684 11.1461 0.111505 10.6967 0.415796C10.4304 0.605571 10.2086 0.851125 10.0469 1.13536C9.88511 1.41959 9.78726 1.73566 9.76013 2.06157C9.733 2.38748 9.77724 2.71538 9.88978 3.02244C10.0023 3.32951 10.1804 3.60835 10.4117 3.83955L10.6315 4.0593L9.06397 5.6253L8.32522 5.4438C7.31788 5.18296 6.25996 5.18909 5.25571 5.46159C4.25147 5.73409 3.33555 6.26355 2.59822 6.9978L2.06797 7.52805L5.74297 11.1993L0.219971 16.72L1.28047 17.7805L6.80122 12.2605ZM7.95547 6.9003L9.53047 7.2858L12.7555 4.0608L11.47 2.78055C11.3923 2.70307 11.3326 2.60951 11.295 2.50645C11.2575 2.40339 11.243 2.29335 11.2525 2.18407C11.2621 2.0748 11.2956 1.96896 11.3505 1.87401C11.4054 1.77906 11.4805 1.69732 11.5705 1.63455C11.7305 1.53766 11.9191 1.49894 12.1043 1.5249C12.2896 1.55086 12.4602 1.63991 12.5875 1.77705L16.2805 5.47005C16.3581 5.54752 16.4178 5.64108 16.4554 5.74414C16.493 5.8472 16.5075 5.95725 16.4979 6.06652C16.4883 6.17579 16.4549 6.28163 16.4 6.37658C16.345 6.47153 16.2699 6.55327 16.18 6.61605C16.0199 6.71293 15.8314 6.75165 15.6461 6.7257C15.4609 6.69974 15.2902 6.61068 15.163 6.47355L13.9397 5.2503L10.7147 8.4753L11.1032 10.0585C11.2669 10.6888 11.2913 11.3471 11.1747 11.9877C11.0581 12.6283 10.8034 13.2359 10.4282 13.768L4.23472 7.5753C4.76848 7.19892 5.37793 6.94353 6.02056 6.82694C6.66319 6.71036 7.32352 6.73539 7.95547 6.9003Z" fill="currentColor"/>
</svg>
