<svg width="18" height="18" viewBox="0 0 18 18" fill="none" xmlns="http://www.w3.org/2000/svg">
<path d="M5.65123 13.4253L1.28023 17.7805L0.219727 16.72L4.59073 12.3633L5.65123 13.4253ZM10.3762 15.499C11.0634 14.809 11.5591 13.952 11.8145 13.0122C12.0698 12.0725 12.0761 11.0824 11.8327 10.1395L11.5987 9.18252L14.3137 6.45252L14.7412 6.88077C15.0569 7.20713 15.4774 7.41198 15.9289 7.45943C16.3805 7.50688 16.8344 7.39389 17.211 7.14027C17.4331 6.98221 17.6181 6.77761 17.753 6.54073C17.888 6.30386 17.9697 6.0404 17.9924 5.76873C18.0151 5.49706 17.9783 5.2237 17.8845 4.96771C17.7907 4.71172 17.6423 4.47926 17.4495 4.28652L13.758 0.591268C13.4421 0.2653 13.0216 0.0607209 12.5702 0.0132866C12.1188 -0.0341476 11.665 0.0785804 11.2882 0.331768C11.0659 0.489763 10.8808 0.694351 10.7457 0.931263C10.6106 1.16818 10.5288 1.43171 10.506 1.70348C10.4832 1.97526 10.52 2.24873 10.6138 2.50482C10.7076 2.76092 10.8561 2.99347 11.049 3.18627L11.5342 3.67077L8.81848 6.40077L7.86748 6.16752C6.92374 5.92298 5.93257 5.92862 4.99169 6.1839C4.0508 6.43918 3.1927 6.93527 2.50198 7.62327L2.23723 7.88877L10.1122 15.7638L10.3762 15.499Z" fill="currentColor"/>
</svg>
