<svg width="20" height="21" viewBox="0 0 20 21" fill="none" xmlns="http://www.w3.org/2000/svg">
<path d="M8.88873 9.38885V3.27774C8.88873 2.98305 9.00579 2.70044 9.21416 2.49206C9.42254 2.28369 9.70515 2.16663 9.99984 2.16663C10.2945 2.16663 10.5771 2.28369 10.7855 2.49206C10.9939 2.70044 11.1109 2.98305 11.1109 3.27774V9.38885H17.2221C17.5167 9.38885 17.7994 9.50591 18.0077 9.71428C18.2161 9.92266 18.3332 10.2053 18.3332 10.5C18.3332 10.7946 18.2161 11.0773 18.0077 11.2856C17.7994 11.494 17.5167 11.6111 17.2221 11.6111H11.1109V17.7222C11.1109 18.0169 10.9939 18.2995 10.7855 18.5079C10.5771 18.7162 10.2945 18.8333 9.99984 18.8333C9.70515 18.8333 9.42254 18.7162 9.21416 18.5079C9.00579 18.2995 8.88873 18.0169 8.88873 17.7222V11.6111H2.77762C2.48293 11.6111 2.20031 11.494 1.99194 11.2856C1.78357 11.0773 1.6665 10.7946 1.6665 10.5C1.6665 10.2053 1.78357 9.92266 1.99194 9.71428C2.20031 9.50591 2.48293 9.38885 2.77762 9.38885H8.88873Z" fill="#0D7ED6"/>
</svg>
