<svg width="16" height="16" viewBox="0 0 16 16" fill="none" xmlns="http://www.w3.org/2000/svg">
<path d="M14 8C13.9998 7.63218 13.9663 7.26512 13.9 6.90333L15.9286 5.73333L13.9286 2.26667L11.8993 3.43933C11.339 2.95995 10.6951 2.58796 9.99996 2.342V0H5.99996V2.342C5.30479 2.58796 4.66092 2.95995 4.10062 3.43933L2.07129 2.26667L0.0712891 5.73333L2.09996 6.90333C1.9667 7.62837 1.9667 8.37163 2.09996 9.09667L0.0712891 10.2667L2.07129 13.7333L4.10062 12.5613C4.66098 13.0405 5.30484 13.4122 5.99996 13.658V16H9.99996V13.658C10.6951 13.412 11.339 13.04 11.8993 12.5607L13.9286 13.7333L15.9286 10.2667L13.9 9.09667C13.9663 8.73488 13.9998 8.36782 14 8ZM9.99996 8C9.99996 8.39556 9.88266 8.78224 9.6629 9.11114C9.44313 9.44004 9.13077 9.69638 8.76532 9.84776C8.39987 9.99914 7.99774 10.0387 7.60978 9.96157C7.22181 9.8844 6.86545 9.69392 6.58574 9.41421C6.30604 9.13451 6.11556 8.77814 6.03838 8.39018C5.96121 8.00222 6.00082 7.60009 6.1522 7.23463C6.30357 6.86918 6.55992 6.55682 6.88881 6.33706C7.21771 6.1173 7.60439 6 7.99996 6C8.53039 6 9.0391 6.21071 9.41417 6.58579C9.78924 6.96086 9.99996 7.46957 9.99996 8Z" fill="currentColor"/>
</svg>
