<svg width="20" height="21" viewBox="0 0 20 21" fill="none" xmlns="http://www.w3.org/2000/svg">
<g clip-path="url(#clip0_970_1519)">
<path d="M17.5 1.33337H2.5C1.83696 1.33337 1.20107 1.59677 0.732233 2.06561C0.263392 2.53445 0 3.17033 0 3.83337L0 19.6667H20V3.83337C20 3.17033 19.7366 2.53445 19.2678 2.06561C18.7989 1.59677 18.163 1.33337 17.5 1.33337ZM2.5 3.00004H17.5C17.721 3.00004 17.933 3.08784 18.0893 3.24412C18.2455 3.4004 18.3333 3.61236 18.3333 3.83337V6.33337H1.66667V3.83337C1.66667 3.61236 1.75446 3.4004 1.91074 3.24412C2.06702 3.08784 2.27899 3.00004 2.5 3.00004ZM1.66667 18V8.00004H18.3333V18H1.66667ZM4.16667 10.5H15.8333V12.1667H4.16667V10.5ZM4.16667 13.8334H12.5V15.5H4.16667V13.8334ZM2.5 4.66671C2.5 4.50189 2.54887 4.34077 2.64044 4.20373C2.73201 4.06669 2.86216 3.95988 3.01443 3.89681C3.1667 3.83373 3.33426 3.81723 3.49591 3.84939C3.65756 3.88154 3.80605 3.96091 3.92259 4.07745C4.03913 4.194 4.1185 4.34248 4.15065 4.50413C4.18281 4.66578 4.16631 4.83334 4.10323 4.98561C4.04016 5.13788 3.93335 5.26803 3.79631 5.3596C3.65927 5.45117 3.49815 5.50004 3.33333 5.50004C3.11232 5.50004 2.90036 5.41224 2.74408 5.25596C2.5878 5.09968 2.5 4.88772 2.5 4.66671ZM5 4.66671C5 4.50189 5.04887 4.34077 5.14044 4.20373C5.23201 4.06669 5.36216 3.95988 5.51443 3.89681C5.6667 3.83373 5.83426 3.81723 5.99591 3.84939C6.15756 3.88154 6.30605 3.96091 6.42259 4.07745C6.53913 4.194 6.6185 4.34248 6.65065 4.50413C6.68281 4.66578 6.66631 4.83334 6.60323 4.98561C6.54016 5.13788 6.43335 5.26803 6.29631 5.3596C6.15927 5.45117 5.99815 5.50004 5.83333 5.50004C5.61232 5.50004 5.40036 5.41224 5.24408 5.25596C5.0878 5.09968 5 4.88772 5 4.66671ZM7.5 4.66671C7.5 4.50189 7.54887 4.34077 7.64044 4.20373C7.73201 4.06669 7.86216 3.95988 8.01443 3.89681C8.1667 3.83373 8.33426 3.81723 8.49591 3.84939C8.65756 3.88154 8.80604 3.96091 8.92259 4.07745C9.03913 4.194 9.1185 4.34248 9.15065 4.50413C9.18281 4.66578 9.16631 4.83334 9.10323 4.98561C9.04016 5.13788 8.93335 5.26803 8.79631 5.3596C8.65927 5.45117 8.49815 5.50004 8.33333 5.50004C8.11232 5.50004 7.90036 5.41224 7.74408 5.25596C7.5878 5.09968 7.5 4.88772 7.5 4.66671Z" fill="#0D7ED6"/>
</g>
<defs>
<clipPath id="clip0_970_1519">
<rect width="20" height="20" fill="white" transform="translate(0 0.5)"/>
</clipPath>
</defs>
</svg>
