<svg width="12" height="13" viewBox="0 0 12 13" fill="none" xmlns="http://www.w3.org/2000/svg">
<path d="M2.93756 5.5H9.06247C9.18103 5.5 9.28353 5.46152 9.37013 5.38462C9.45674 5.30764 9.5 5.21653 9.5 5.1112C9.5 5.00587 9.45674 4.91469 9.37013 4.83775L6.30767 2.11552C6.22097 2.03854 6.11847 2 6 2C5.88153 2 5.77893 2.03854 5.69241 2.11552L2.62994 4.83777C2.54343 4.91469 2.5 5.00587 2.5 5.11122C2.5 5.21653 2.54341 5.30764 2.62994 5.38465C2.71647 5.46161 2.81906 5.5 2.93756 5.5Z" fill="#0D7ED6"/>
<path d="M9.06244 7.5H2.93753C2.81897 7.5 2.71647 7.53848 2.62987 7.61538C2.54326 7.69236 2.5 7.78347 2.5 7.8888C2.5 7.99413 2.54326 8.08531 2.62987 8.16225L5.69233 10.8845C5.77903 10.9615 5.88153 11 6 11C6.11847 11 6.22106 10.9615 6.30759 10.8845L9.37006 8.16223C9.45657 8.08531 9.5 7.99413 9.5 7.88878C9.5 7.78347 9.45659 7.69236 9.37006 7.61535C9.28353 7.53839 9.18094 7.5 9.06244 7.5Z" fill="#787D82"/>
</svg>
