<svg width="17" height="17" viewBox="0 0 17 17" fill="none" xmlns="http://www.w3.org/2000/svg">
<path d="M7.61109 7.61111V2.72222C7.61109 2.48647 7.70474 2.26038 7.87144 2.09368C8.03814 1.92698 8.26423 1.83333 8.49998 1.83333C8.73573 1.83333 8.96182 1.92698 9.12852 2.09368C9.29522 2.26038 9.38887 2.48647 9.38887 2.72222V7.61111H14.2778C14.5135 7.61111 14.7396 7.70476 14.9063 7.87146C15.073 8.03815 15.1666 8.26425 15.1666 8.5C15.1666 8.73574 15.073 8.96184 14.9063 9.12854C14.7396 9.29523 14.5135 9.38888 14.2778 9.38888H9.38887V14.2778C9.38887 14.5135 9.29522 14.7396 9.12852 14.9063C8.96182 15.073 8.73573 15.1667 8.49998 15.1667C8.26423 15.1667 8.03814 15.073 7.87144 14.9063C7.70474 14.7396 7.61109 14.5135 7.61109 14.2778V9.38888H2.7222C2.48645 9.38888 2.26036 9.29523 2.09366 9.12854C1.92696 8.96184 1.83331 8.73574 1.83331 8.5C1.83331 8.26425 1.92696 8.03815 2.09366 7.87146C2.26036 7.70476 2.48645 7.61111 2.7222 7.61111H7.61109Z" fill="currentColor"/>
</svg>
