<svg width="17" height="17" viewBox="0 0 17 17" fill="none" xmlns="http://www.w3.org/2000/svg">
<path d="M15.2338 7.54133L2.33517 1.24866C2.21122 1.18826 2.07393 1.16038 1.93623 1.16767C1.79854 1.17495 1.66496 1.21716 1.54807 1.2903C1.43118 1.36345 1.33483 1.46514 1.26807 1.58579C1.20132 1.70645 1.16637 1.8421 1.1665 1.97999V2.00333C1.16657 2.11233 1.18 2.22092 1.2065 2.32666L2.44384 7.27599C2.46042 7.34193 2.49677 7.40121 2.54801 7.4459C2.59925 7.49058 2.66293 7.51853 2.7305 7.52599L8.1685 8.13066C8.25898 8.14154 8.34234 8.1852 8.40281 8.25338C8.46328 8.32156 8.49667 8.40953 8.49667 8.50066C8.49667 8.59179 8.46328 8.67976 8.40281 8.74794C8.34234 8.81612 8.25898 8.85978 8.1685 8.87066L2.7305 9.47533C2.66293 9.48279 2.59925 9.51074 2.54801 9.55543C2.49677 9.60011 2.46042 9.6594 2.44384 9.72533L1.2065 14.674C1.18 14.7797 1.16657 14.8883 1.1665 14.9973V15.0207C1.16648 15.1585 1.20152 15.2941 1.26832 15.4146C1.33512 15.5352 1.43148 15.6368 1.54835 15.7099C1.66522 15.7829 1.79876 15.8251 1.9364 15.8323C2.07404 15.8396 2.21127 15.8117 2.33517 15.7513L15.2332 9.45866C15.4128 9.37103 15.5642 9.23469 15.6701 9.0652C15.776 8.8957 15.8321 8.69986 15.8321 8.49999C15.8321 8.30013 15.776 8.10429 15.6701 7.93479C15.5642 7.76529 15.4135 7.62896 15.2338 7.54133Z" fill="white"/>
</svg>
