<svg width="16" height="16" viewBox="0 0 16 16" fill="none" xmlns="http://www.w3.org/2000/svg">
<path d="M11.3335 2.66666V1.33333C11.3335 0.979704 11.193 0.640565 10.943 0.390517C10.6929 0.140468 10.3538 -7.62939e-06 10.0002 -7.62939e-06L6.00016 -7.62939e-06C5.64654 -7.62939e-06 5.3074 0.140468 5.05735 0.390517C4.80731 0.640565 4.66683 0.979704 4.66683 1.33333V2.66666H1.3335V3.99999H2.66683V14C2.66683 14.5304 2.87754 15.0391 3.25262 15.4142C3.62769 15.7893 4.1364 16 4.66683 16H11.3335C11.8639 16 12.3726 15.7893 12.7477 15.4142C13.1228 15.0391 13.3335 14.5304 13.3335 14V3.99999H14.6668V2.66666H11.3335ZM7.3335 11.3333H6.00016V7.33333H7.3335V11.3333ZM10.0002 11.3333H8.66683V7.33333H10.0002V11.3333ZM10.0002 2.66666H6.00016V1.33333H10.0002V2.66666Z" fill="currentColor"/>
</svg>
