<svg xmlns="http://www.w3.org/2000/svg" viewBox="0 0 3208.99 613.86"><defs><style>.cls-1{fill:#006ba6;}</style></defs><title>1smetnyi_logo</title><g id="Слой_2"><g id="Logotype"><path id="body1" class="cls-1" d="M0,8.86v605H605V8.86ZM122.79,28.91h83.78v325.8h65.79v96.2H20.4v-96.2H94.87V142.48L20.4,170.4V68Z"/><path id="body2" class="cls-1" d="M2971.29,0a92.71,92.71,0,0,0,5.64,33,75.52,75.52,0,0,0,16.52,25.39A75.52,75.52,0,0,0,3018.83,75a92.71,92.71,0,0,0,33,5.64,92.68,92.68,0,0,0,33-5.64,75.67,75.67,0,0,0,25.39-16.52A70.9,70.9,0,0,0,3126.42,33a87.16,87.16,0,0,0,6-33H3072q0,9.27-5.64,14.91-5.24,5.23-14.51,5.24T3037,14.91q-5.24-5.64-5.23-14.91ZM1049,102.75A154,154,0,0,0,989.78,114a145.12,145.12,0,0,0-47.15,31.43,149,149,0,0,0-31.42,46.74,145.84,145.84,0,0,0-11.29,57.62,148.81,148.81,0,0,0,11.29,58,155.5,155.5,0,0,0,31.42,46.74,148.47,148.47,0,0,0,47.15,31A154,154,0,0,0,1049,396.89q29,0,50-6.85T1134,374.73a128.17,128.17,0,0,0,27.8-22.16L1113.48,276a93.11,93.11,0,0,1-15.72,11.28,81.87,81.87,0,0,1-16.92,7.66,59.65,59.65,0,0,1-19.74,3.22q-21.36,0-35.06-13.29-13.29-13.71-13.3-35.06t13.3-34.65q13.7-13.71,35.06-13.7a53.85,53.85,0,0,1,19.74,3.62,81.87,81.87,0,0,1,16.92,7.66,108.85,108.85,0,0,1,15.72,10.88l48.35-76.56a146.35,146.35,0,0,0-27.8-22.16q-14.1-8.05-35.06-14.91Q1078,102.74,1049,102.75Zm-286.18,6L694.33,137v88.64l60.44-20.14V390.85H859.54V108.79Zm431.61,0V390.85h104.77V233.7l48.35,157.15h84.61l48.36-157.15V390.85h104.76V108.79H1436.2l-46.33,153.12-46.34-153.12Zm439.14,0V390.85h225.64V310.26H1738.34V290.11H1843.1V209.53H1738.34V189.38h112.82V108.79Zm245.94,0v92.68h76.56V390.85h104.76V201.47h76.56V108.79Zm290,0V390.85h104.76V294.14h64.47v96.71h104.77V108.79H2338.74V205.5h-64.47V108.79Zm322.66,0V390.85q15.32,1.2,34.25,2,15.72.81,37.07,1.21,21.36.81,45.53.81,33,0,57.22-7.26,24.59-7.25,40.29-20.55a83.4,83.4,0,0,0,23.78-32.63q7.65-18.94,7.65-42.31t-7.65-42.31A85.91,85.91,0,0,0,2709,217.58q-13.69-13.7-33.84-21t-45.94-7.25q-6,0-12.09.4-5.64.41-10.07.81c-3.49.27-6.85.53-10.07.8v-82.6Zm265.94,0V390.85h104.76V108.79Zm152.74,0V390.85h112.82l64.47-137v137H3192.9V108.79H3080.08l-64.47,137v-137ZM2596.94,265.94H2609a22.8,22.8,0,0,1,17.33,7.25q6.86,6.85,6.85,18.94t-6.85,19.34q-6.85,6.84-17.33,6.85h-12.08Z"/><path id="body3" class="cls-1" d="M1026,492.62q-15.47,0-23.84,9.06t-8.32,26q0,16.92,8.28,26.13t23.78,9.16q15.28,0,23.6-9.25t8.37-25.94q0-16.74-8.32-25.94T1026,492.62Zm462.61,0q-15.46,0-23.83,9.06t-8.32,26q0,16.92,8.27,26.13t23.79,9.16q15.29,0,23.6-9.25t8.36-25.94q0-16.74-8.32-25.94T1488.6,492.62Zm233.27,0q-15.46,0-23.83,9.06t-8.32,26q0,16.92,8.27,26.13t23.79,9.16q15.29,0,23.6-9.25t8.36-25.94q0-16.74-8.32-25.94T1721.87,492.62Zm956.05,0q-15.47,0-23.83,9.06t-8.32,26q0,16.92,8.27,26.13t23.79,9.16q15.27,0,23.6-9.25t8.36-25.94q0-16.74-8.32-25.94T2677.92,492.62Zm-1739.5.09v8.41h-2.76a29.7,29.7,0,0,0-14.35,3.32,22.85,22.85,0,0,0-9.39,9.11,26.06,26.06,0,0,0-3.27,13,26.34,26.34,0,0,0,3.6,13.6,23,23,0,0,0,9.9,9.2,33.74,33.74,0,0,0,14.73,3h1.54V563H949V552.43h1.49a33.37,33.37,0,0,0,14.73-3,22.75,22.75,0,0,0,9.9-9.11,28.1,28.1,0,0,0,.38-26.82,22.3,22.3,0,0,0-9.3-9.07,29.87,29.87,0,0,0-14.35-3.27H949v-8.41Zm1368.67,0a34.18,34.18,0,0,0-17.34,4.25,28.05,28.05,0,0,0-11.31,12.25,42.28,42.28,0,0,0-3.88,18.64q0,16.92,8,26t23,9.07a51.21,51.21,0,0,0,18.23-3v-9.58q-4.39,1.35-8.46,2.24a41.51,41.51,0,0,1-8.41.84q-10,0-15.38-6.45t-5.28-19q0-12,5.52-18.84t15.14-6.82a25.69,25.69,0,0,1,8.08,1.26,57.09,57.09,0,0,1,7.34,2.85l4-9.3A43,43,0,0,0,2307.09,492.71Zm-1056.71.7L1224.81,562h11.78l6.68-19h26.13l6.82,19h11.87l-25.56-68.6Zm1175.68,0L2400.49,562h11.78l6.69-19h26.12l6.82,19h11.87l-25.56-68.6Zm745.22,0L3145.71,562h11.78l6.68-19h26.13l6.82,19H3209l-25.56-68.6Zm-2415.39.28V562H769l35-54.86h.37q-.89,11.54-.89,19.63V562h10.28V493.69h-13l-34.91,54.44h-.42q.14-2,.42-7.66c.18-3.8.28-7.56.28-11.26V493.69Zm80.56,0V562h11.17V531.22h31.5V562h11.22V493.69H879.12v27.94h-31.5V493.69Zm240.75,0V562h11.17V536.45h7.1q12.94,0,20-5.7t7-16.4q0-10.2-6.4-15.43t-19.16-5.23Zm63.55,0V562h10.14V528.79q0-11.13-.79-23.84h.37L1170.29,562h9.85l20.52-57h.38c-.13,1.16-.28,4.46-.47,9.91s-.24,9.88-.24,13.27V562h10.75V493.69h-15.79L1175.75,548h-.28l-19-54.35Zm161.12,0V562h50.8v18.84h10.79V552.71h-9.06v-59h-11.22v58.74H1313V493.69Zm77.38,0V562h13.09l35.05-54.86h.37q-.88,11.54-.89,19.63V562h10.28V493.69h-13l-34.91,54.44h-.42q.14-2,.42-7.66c.18-3.8.28-7.56.28-11.26V493.69Zm160.56,0V562H1551V531.22h31.5V562h11.22V493.69h-11.22v27.94H1551V493.69Zm76.64,0V562h11.17V531.22h31.5V562h11.21V493.69h-11.21v27.94h-31.5V493.69Zm184.48,0v9.58H1821V562h11.17V503.27h20.1v-9.58Zm66.54,0V562h38.65v-9.48h-27.48V531.08h25.75v-9.35h-25.75v-18.6h27.48v-9.44Zm50.74,0,21.22,32.9L1916.77,562h12L1946,534.07,1963.08,562h12.85l-23-35.23,21.35-33.09h-12l-15.8,25.84-15.8-25.84Zm71.68,0V562h11.17V531.22h31.5V562h11.22V493.69h-11.22v27.94h-31.5V493.69Zm76.64,0V562h13.09l35.05-54.86h.37q-.89,11.54-.89,19.63V562h10.28V493.69h-13l-34.91,54.44h-.42q.15-2,.42-7.66c.19-3.8.28-7.56.28-11.26V493.69Zm78,0v27.76q0,8.37,5.23,12.94t15,4.54a50.66,50.66,0,0,0,9.9-1,82,82,0,0,0,11.27-3.23V562h11.21V493.69h-11.21v32.06a85.94,85.94,0,0,1-10.19,2.85,46.55,46.55,0,0,1-8.65.79c-4,0-6.91-.87-8.69-2.61s-2.62-4.4-2.62-7.95V493.69Zm75.23,0V562h38.65v-9.48H2231V531.08h25.75v-9.35H2231v-18.6h27.48v-9.44Zm123.55,0V562h11.17V527.38L2382.65,562h13.13l-28.93-35.33,27.58-33h-12.25l-27.66,33.09V493.69Zm157.89,0q-12.61,0-19.11,4.95t-6.5,14.35q0,14.53,13.09,19.07l-19.26,30h12.76l16.92-27.38h11.4V562h11.22V493.69Zm72.75,0V562h11.17V503.27h30.14V562h11.22V493.69Zm169.21,0a154,154,0,0,1-5.89,30.94,141.48,141.48,0,0,1-11.36,27.8h-5.28v28.42h10.75V562h45.15v18.84h10.74V552.43h-8.83V493.69Zm73.83,0a154,154,0,0,1-5.89,30.94,142.08,142.08,0,0,1-11.35,27.8h-5.29v28.42h10.75V562h45.15v18.84h10.74V552.43h-8.83V493.69Zm59.76,0V562h38.65v-9.48H2888V531.08h25.75v-9.35H2888v-18.6h27.48v-9.44Zm58.13,0V562h11.17V536.45h7.11q12.95,0,20-5.7t7-16.4q0-10.2-6.4-15.43t-19.16-5.23Zm55.7,0,25,33L2989.45,562h12.43l25-34.63V562h10.61V527.38l25,34.63h12.33l-26-35.33,25-33h-12l-24.3,33.09V493.69h-10.61v33.09l-24.3-33.09Zm98,0V562h11.16V527.38L3127.87,562H3141l-28.93-35.33,27.57-33H3127.4l-27.67,33.09V493.69ZM1026,502.2q9.94,0,15,6.49t5,19.07q0,12.75-5.1,19.2t-15,6.45q-10,0-15.09-6.49t-5.09-19.16q0-12.57,5.09-19.07T1026,502.2Zm462.61,0q10,0,15,6.49t5,19.07q0,12.75-5.09,19.2t-15,6.45q-10,0-15.1-6.49t-5.09-19.16q0-12.57,5.09-19.07T1488.6,502.2Zm233.27,0q10,0,15,6.49t5,19.07q0,12.75-5.09,19.2t-15,6.45q-10,0-15.1-6.49t-5.09-19.16q0-12.57,5.09-19.07T1721.87,502.2Zm956.05,0q10,0,15,6.49t5,19.07q0,12.75-5.09,19.2t-15,6.45q-10,0-15.1-6.49t-5.09-19.16q0-12.57,5.09-19.07T2677.92,502.2ZM1088.37,503h7.76q7.62,0,11.21,2.89c2.4,1.94,3.6,4.86,3.6,8.79q0,6.36-4,9.35t-12.62,3h-5.93Zm168,0q.46,1.86,1.68,5.88c.84,2.68,1.49,4.65,2,5.89l6.4,18.6h-19.91l6.17-17.8A104.84,104.84,0,0,0,1256.41,503Zm1175.68,0q.47,1.86,1.68,5.88c.84,2.68,1.49,4.65,2,5.89l6.4,18.6h-19.91l6.17-17.8A106.72,106.72,0,0,0,2432.09,503Zm69.57,0h8.88v22.34H2502q-7.66,0-11.31-3.09a10.66,10.66,0,0,1-3.65-8.6q0-5.66,3.74-8.13T2501.66,503Zm444.43,0h7.76q7.62,0,11.21,2.89c2.4,1.94,3.6,4.86,3.6,8.79q0,6.36-4,9.35t-12.61,3h-5.94Zm231.21,0q.48,1.86,1.69,5.88c.84,2.68,1.49,4.65,2,5.89l6.4,18.6h-19.91l6.17-17.8A104.67,104.67,0,0,0,3177.3,503Zm-424.76.32h14.77v49.07h-29.58a145.23,145.23,0,0,0,9.58-24.44A131.21,131.21,0,0,0,2752.54,503.36Zm73.84,0h14.76v49.07h-29.58a144.39,144.39,0,0,0,9.58-24.44A131.31,131.31,0,0,0,2826.38,503.36ZM936.13,510.23h2.29v33.32h-.84q-8.57,0-13.28-4.53t-4.72-12.52q0-7.44,4.4-11.83T936.13,510.23Zm12.85,0h2.29q7.71,0,12.1,4.4t4.44,11.87q0,8-4.77,12.57t-13.13,4.48H949Zm818.45,21.45V541h24v-9.35Z"/></g></g></svg>